<svg width="149" height="72" viewBox="0 0 149 72" fill="none" xmlns="http://www.w3.org/2000/svg">
<g clip-path="url(#clip0_14031_978)">
<path d="M38.9115 12.8318H53.9026V15.6168H48.0081V31.273H44.7668V15.6168H38.8984V12.8318H38.9115ZM53.2622 17.9204H56.033V20.4972H56.0853C56.1768 20.1328 56.3467 19.7814 56.595 19.443C56.8433 19.1047 57.1439 18.7793 57.4968 18.506C57.8497 18.2197 58.2418 17.9984 58.6731 17.8162C59.1044 17.6471 59.5488 17.556 59.9932 17.556C60.333 17.556 60.5813 17.569 60.712 17.582C60.8427 17.595 60.9734 17.621 61.1172 17.634V20.4712C60.9081 20.4321 60.6989 20.4061 60.4767 20.3801C60.2546 20.354 60.0454 20.341 59.8363 20.341C59.3397 20.341 58.8692 20.4451 58.4248 20.6403C57.9804 20.8355 57.6014 21.1349 57.2746 21.5123C56.9479 21.9027 56.6865 22.3712 56.4904 22.9439C56.2944 23.5165 56.2029 24.1672 56.2029 24.909V31.26H53.2491V17.9204H53.2622ZM74.6967 31.273H71.7952V29.4119H71.743C71.377 30.0887 70.8411 30.6223 70.1223 31.0257C69.4034 31.4291 68.6715 31.6374 67.9266 31.6374C66.1621 31.6374 64.8813 31.2079 64.0971 30.3359C63.3129 29.464 62.9208 28.1496 62.9208 26.3926V17.9204H65.8746V26.1063C65.8746 27.2776 66.0968 28.1105 66.5542 28.592C66.9986 29.0736 67.639 29.3208 68.4494 29.3208C69.0767 29.3208 69.5864 29.2297 70.0047 29.0345C70.4229 28.8393 70.7627 28.592 71.011 28.2667C71.2724 27.9543 71.4554 27.5639 71.573 27.1214C71.6907 26.6789 71.743 26.1974 71.743 25.6768V17.9334H74.6967V31.273ZM79.7286 26.9913C79.8201 27.8502 80.1469 28.4489 80.7089 28.8003C81.2839 29.1386 81.9636 29.3208 82.7608 29.3208C83.0353 29.3208 83.349 29.2948 83.7019 29.2558C84.0547 29.2167 84.3946 29.1256 84.6952 29.0085C85.0088 28.8914 85.2572 28.7092 85.4663 28.4749C85.6623 28.2407 85.7538 27.9413 85.7408 27.5639C85.7277 27.1865 85.5839 26.8742 85.3225 26.6399C85.0611 26.3926 84.7344 26.2104 84.3292 26.0543C83.924 25.9111 83.4666 25.781 82.9438 25.6768C82.421 25.5727 81.8982 25.4556 81.3624 25.3385C80.8134 25.2213 80.2776 25.0652 79.7678 24.896C79.2581 24.7268 78.8007 24.4926 78.3955 24.1932C77.9903 23.9069 77.6636 23.5295 77.4283 23.074C77.18 22.6185 77.0624 22.0589 77.0624 21.3821C77.0624 20.6533 77.2454 20.0547 77.5982 19.5602C77.9511 19.0656 78.4086 18.6752 78.9444 18.3759C79.4934 18.0765 80.0946 17.8683 80.7611 17.7382C81.4277 17.621 82.0681 17.556 82.6693 17.556C83.362 17.556 84.0286 17.634 84.656 17.7772C85.2833 17.9204 85.8584 18.1546 86.3681 18.493C86.8778 18.8183 87.2961 19.2478 87.6359 19.7684C87.9757 20.2889 88.1848 20.9266 88.2763 21.6685H85.1918C85.048 20.9657 84.7344 20.4842 84.2247 20.2499C83.7149 20.0026 83.1268 19.8855 82.4733 19.8855C82.2642 19.8855 82.0158 19.8985 81.7283 19.9376C81.4408 19.9766 81.1794 20.0417 80.918 20.1328C80.6697 20.2239 80.4605 20.367 80.2776 20.5492C80.1077 20.7314 80.0162 20.9657 80.0162 21.265C80.0162 21.6294 80.1469 21.9157 80.3952 22.137C80.6435 22.3582 80.9703 22.5404 81.3754 22.6966C81.7806 22.8397 82.238 22.9699 82.7608 23.074C83.2836 23.1781 83.8195 23.2952 84.3684 23.4124C84.9043 23.5295 85.4271 23.6857 85.9499 23.8549C86.4727 24.024 86.9301 24.2583 87.3353 24.5576C87.7404 24.857 88.0672 25.2213 88.3155 25.6638C88.5638 26.1063 88.6945 26.6659 88.6945 27.3166C88.6945 28.1105 88.5116 28.7742 88.1456 29.3339C87.7797 29.8804 87.3091 30.3359 86.7341 30.6743C86.159 31.0127 85.5055 31.273 84.7997 31.4291C84.094 31.5853 83.3882 31.6634 82.6955 31.6634C81.8459 31.6634 81.0618 31.5723 80.3429 31.3771C79.6241 31.1819 78.9967 30.8956 78.4739 30.5181C77.9511 30.1277 77.5329 29.6462 77.2323 29.0736C76.9317 28.5009 76.7748 27.8112 76.7487 27.0173H79.7286V26.9913ZM89.4787 17.9204H91.7137V13.912H94.6675V17.9204H97.3337V20.1198H94.6675V27.2516C94.6675 27.5639 94.6805 27.8242 94.7067 28.0585C94.7328 28.2797 94.7982 28.4749 94.8896 28.6311C94.9811 28.7873 95.1249 28.9044 95.3209 28.9825C95.517 29.0606 95.7653 29.0996 96.1051 29.0996C96.3143 29.0996 96.5234 29.0996 96.7325 29.0866C96.9416 29.0736 97.1507 29.0475 97.3598 28.9955V31.273C97.0331 31.312 96.7063 31.338 96.4057 31.3771C96.0921 31.4161 95.7784 31.4291 95.4516 31.4291C94.6675 31.4291 94.0401 31.3511 93.5696 31.2079C93.0991 31.0647 92.7201 30.8435 92.4587 30.5572C92.1842 30.2709 92.0143 29.9195 91.9097 29.49C91.8182 29.0606 91.7529 28.566 91.7398 28.0194V20.1458H89.5049V17.9204H89.4787ZM99.4249 17.9204H102.222V19.7293H102.274C102.692 18.9485 103.267 18.4019 104.012 18.0635C104.757 17.7251 105.555 17.556 106.43 17.556C107.489 17.556 108.404 17.7382 109.188 18.1156C109.972 18.48 110.626 18.9875 111.149 19.6382C111.671 20.2889 112.05 21.0438 112.312 21.9027C112.573 22.7617 112.704 23.6857 112.704 24.6617C112.704 25.5597 112.586 26.4317 112.351 27.2646C112.116 28.1105 111.763 28.8523 111.292 29.503C110.822 30.1538 110.221 30.6613 109.489 31.0517C108.757 31.4422 107.907 31.6374 106.914 31.6374C106.483 31.6374 106.051 31.5983 105.62 31.5202C105.189 31.4422 104.77 31.312 104.378 31.1428C103.986 30.9736 103.607 30.7524 103.28 30.4791C102.941 30.2058 102.666 29.8935 102.431 29.5421H102.379V36.2054H99.4249V17.9204ZM109.75 24.6097C109.75 24.011 109.672 23.4254 109.515 22.8528C109.358 22.2801 109.123 21.7856 108.809 21.3431C108.495 20.9006 108.103 20.5492 107.646 20.2889C107.175 20.0287 106.639 19.8855 106.038 19.8855C104.797 19.8855 103.856 20.315 103.228 21.1739C102.601 22.0329 102.287 23.1781 102.287 24.6097C102.287 25.2864 102.366 25.9111 102.536 26.4837C102.705 27.0564 102.941 27.5509 103.28 27.9674C103.607 28.3838 103.999 28.7092 104.457 28.9434C104.914 29.1907 105.45 29.3078 106.051 29.3078C106.731 29.3078 107.293 29.1647 107.763 28.8914C108.234 28.6181 108.613 28.2537 108.914 27.8242C109.214 27.3817 109.436 26.8872 109.567 26.3276C109.685 25.7679 109.75 25.1953 109.75 24.6097ZM114.965 12.8318H117.919V15.6168H114.965V12.8318ZM114.965 17.9204H117.919V31.273H114.965V17.9204ZM120.559 12.8318H123.513V31.273H120.559V12.8318ZM132.57 31.6374C131.498 31.6374 130.544 31.4552 129.708 31.1038C128.871 30.7524 128.165 30.2579 127.577 29.6462C127.002 29.0215 126.558 28.2797 126.257 27.4208C125.957 26.5618 125.8 25.6118 125.8 24.5837C125.8 23.5685 125.957 22.6315 126.257 21.7726C126.558 20.9136 127.002 20.1718 127.577 19.5471C128.152 18.9225 128.871 18.4409 129.708 18.0895C130.544 17.7382 131.498 17.556 132.57 17.556C133.642 17.556 134.596 17.7382 135.432 18.0895C136.269 18.4409 136.975 18.9355 137.563 19.5471C138.138 20.1718 138.582 20.9136 138.883 21.7726C139.183 22.6315 139.34 23.5685 139.34 24.5837C139.34 25.6118 139.183 26.5618 138.883 27.4208C138.582 28.2797 138.138 29.0215 137.563 29.6462C136.988 30.2709 136.269 30.7524 135.432 31.1038C134.596 31.4552 133.642 31.6374 132.57 31.6374ZM132.57 29.3078C133.223 29.3078 133.799 29.1647 134.282 28.8914C134.766 28.6181 135.158 28.2537 135.472 27.8112C135.785 27.3687 136.007 26.8611 136.164 26.3015C136.308 25.7419 136.386 25.1693 136.386 24.5837C136.386 24.011 136.308 23.4514 136.164 22.8788C136.02 22.3062 135.785 21.8116 135.472 21.3691C135.158 20.9266 134.766 20.5753 134.282 20.302C133.799 20.0287 133.223 19.8855 132.57 19.8855C131.917 19.8855 131.341 20.0287 130.858 20.302C130.374 20.5753 129.982 20.9397 129.668 21.3691C129.355 21.8116 129.133 22.3062 128.976 22.8788C128.832 23.4514 128.754 24.011 128.754 24.5837C128.754 25.1693 128.832 25.7419 128.976 26.3015C129.12 26.8611 129.355 27.3687 129.668 27.8112C129.982 28.2537 130.374 28.6181 130.858 28.8914C131.341 29.1777 131.917 29.3078 132.57 29.3078ZM140.203 17.9204H142.438V13.912H145.392V17.9204H148.058V20.1198H145.392V27.2516C145.392 27.5639 145.405 27.8242 145.431 28.0585C145.457 28.2797 145.522 28.4749 145.614 28.6311C145.705 28.7873 145.849 28.9044 146.045 28.9825C146.241 29.0606 146.489 29.0996 146.829 29.0996C147.038 29.0996 147.247 29.0996 147.457 29.0866C147.666 29.0736 147.875 29.0475 148.084 28.9955V31.273C147.757 31.312 147.43 31.338 147.13 31.3771C146.816 31.4161 146.502 31.4291 146.176 31.4291C145.392 31.4291 144.764 31.3511 144.294 31.2079C143.823 31.0647 143.444 30.8435 143.183 30.5572C142.908 30.2709 142.738 29.9195 142.634 29.49C142.542 29.0606 142.477 28.566 142.464 28.0194V20.1458H140.229V17.9204H140.203Z" fill="#191919"/>
<path d="M35.4585 12.832H21.9181L17.7358 0L13.5404 12.832L0 12.819L10.9656 20.7577L6.77018 33.5768L17.7358 25.6511L28.6883 33.5768L24.506 20.7577L35.4585 12.832Z" fill="#00B67A"/>
<path d="M25.4534 23.6595L24.5124 20.7573L17.7422 25.6507L25.4534 23.6595Z" fill="#005128"/>
</g>
<path d="M11.559 65.0554V60.8517H4.52533V58.3975L10.9719 48.6161H14.0014V58.4092H15.5044V60.8517H14.0014V65.0554H11.559ZM7.36698 58.3975L11.559 58.4092L11.5355 51.9862L7.36698 58.3975ZM19.1301 65.3607C18.77 65.3607 18.4647 65.2355 18.2142 64.985C17.9715 64.7345 17.8502 64.4292 17.8502 64.0691C17.8502 63.7168 17.9715 63.4154 18.2142 63.1649C18.4647 62.9144 18.77 62.7891 19.1301 62.7891C19.4902 62.7891 19.7955 62.9144 20.046 63.1649C20.2965 63.4154 20.4217 63.7168 20.4217 64.0691C20.4217 64.4292 20.2965 64.7345 20.046 64.985C19.7955 65.2355 19.4902 65.3607 19.1301 65.3607ZM28.1708 65.3607C27.1218 65.3607 26.1628 65.1024 25.2939 64.5857C24.425 64.0612 23.7283 63.3645 23.2038 62.4956C22.6871 61.6188 22.4288 60.652 22.4288 59.5952C22.4288 59.0316 22.4953 58.5227 22.6284 58.0687C22.7615 57.6147 22.965 57.1371 23.239 56.6361L27.8655 48.6161H30.7071L27.5015 54.1585C28.1512 54.0332 28.7853 54.0293 29.4037 54.1468C30.03 54.2564 30.6171 54.4716 31.1651 54.7926C31.7131 55.1057 32.1945 55.505 32.6094 55.9903C33.0321 56.4678 33.3609 57.0119 33.5958 57.6225C33.8306 58.2331 33.948 58.8907 33.948 59.5952C33.948 60.3859 33.7954 61.1296 33.4901 61.8263C33.1926 62.523 32.7777 63.1375 32.2454 63.6698C31.7209 64.1943 31.1064 64.6092 30.4018 64.9145C29.7051 65.212 28.9614 65.3607 28.1708 65.3607ZM28.1708 62.9183C28.8127 62.9183 29.3842 62.7617 29.8852 62.4486C30.3862 62.1355 30.7815 61.7245 31.0712 61.2157C31.3608 60.7068 31.5056 60.1667 31.5056 59.5952C31.5056 58.9924 31.3569 58.4406 31.0594 57.9395C30.7698 57.4385 30.3744 57.0393 29.8734 56.7418C29.3724 56.4365 28.8127 56.2839 28.1943 56.2839C27.5524 56.2839 26.9809 56.4404 26.4799 56.7536C25.9789 57.0667 25.5836 57.4738 25.2939 57.9748C25.0121 58.4758 24.8712 59.0159 24.8712 59.5952C24.8712 60.2293 25.0238 60.7969 25.3291 61.2979C25.6423 61.7989 26.0493 62.1942 26.5503 62.4838C27.0513 62.7735 27.5915 62.9183 28.1708 62.9183Z" fill="black"/>
<rect width="16.4873" height="16.4873" transform="translate(43.4141 48.8118)" fill="#00B878"/>
<path d="M57.8754 55.6741H53.1199L51.651 51.1672L50.1775 55.6741L45.4219 55.6695L49.2732 58.4577L47.7997 62.9599L51.651 60.1763L55.4977 62.9599L54.0287 58.4577L57.8754 55.6741Z" fill="#F5F5F5"/>
<path d="M54.3567 59.4761L54.0262 58.4568L51.6484 60.1754L54.3567 59.4761Z" fill="#00B87C"/>
<rect width="16.4873" height="16.4873" transform="translate(64.5547 48.8118)" fill="#00B878"/>
<path d="M79.0239 55.6741H74.2683L72.7994 51.1672L71.3259 55.6741L66.5703 55.6695L70.4216 58.4577L68.9481 62.9599L72.7994 60.1763L76.6461 62.9599L75.1772 58.4577L79.0239 55.6741Z" fill="#F5F5F5"/>
<path d="M75.5052 59.4761L75.1747 58.4568L72.7969 60.1754L75.5052 59.4761Z" fill="#00B87C"/>
<rect width="16.4873" height="16.4873" transform="translate(85.6992 48.8118)" fill="#00B878"/>
<path d="M100.168 55.6738H95.4128L93.9439 51.167L92.4704 55.6738L87.7148 55.6692L91.5661 58.4574L90.0926 62.9597L93.9439 60.1761L97.7906 62.9597L96.3217 58.4574L100.168 55.6738Z" fill="#F5F5F5"/>
<path d="M96.6497 59.4761L96.3192 58.4568L93.9414 60.1754L96.6497 59.4761Z" fill="#00B87C"/>
<rect width="16.4873" height="16.4873" transform="translate(106.84 48.8118)" fill="#00B878"/>
<path d="M121.317 55.6738H116.561L115.092 51.167L113.619 55.6738L108.863 55.6692L112.715 58.4574L111.241 62.9597L115.092 60.1761L118.939 62.9597L117.47 58.4574L121.317 55.6738Z" fill="#F5F5F5"/>
<path d="M117.802 59.4761L117.472 58.4568L115.094 60.1754L117.802 59.4761Z" fill="#00B87C"/>
<g clip-path="url(#clip1_14031_978)">
<rect width="16.4873" height="16.4873" transform="translate(127.98 48.8118)" fill="#00B878"/>
<rect x="136.219" y="48.8118" width="8.24367" height="16.4873" fill="#D9D9D9"/>
<path d="M142.45 55.6738H137.694L136.225 51.167L134.752 55.6738L129.996 55.6692L133.847 58.4574L132.374 62.9597L136.225 60.1761L140.072 62.9597L138.603 58.4574L142.45 55.6738Z" fill="#F5F5F5"/>
<path d="M138.931 59.4761L138.6 58.4568L136.223 60.1754L138.931 59.4761Z" fill="#D9D9D9"/>
</g>
<defs>
<clipPath id="clip0_14031_978">
<rect width="148.055" height="36.2056" fill="white"/>
</clipPath>
<clipPath id="clip1_14031_978">
<rect width="16.4873" height="16.4873" fill="white" transform="translate(127.98 48.8118)"/>
</clipPath>
</defs>
</svg>
